<svg width="414" height="896" viewBox="0 0 414 896" fill="none" xmlns="http://www.w3.org/2000/svg">
<g clip-path="url(#clip0)">
<rect width="414" height="896" fill="#F3F8FF"/>
<path d="M448.004 551.528C423.489 592.514 378.71 619.891 333.242 617.742C287.445 615.638 241.334 584.306 204.031 580.692C166.353 576.782 137.529 600.933 119.607 594.671C101.404 588.795 94.1014 552.507 101.061 522.632C108.02 492.758 -16.8732 503.061 -43.1357 472.5C-69.3983 441.939 2.68854 370.901 -23.4744 328.827C-49.6842 286.411 -28.029 239.194 11.7616 241.422C51.1769 243.353 109.056 294.683 152.597 304.761C195.809 314.885 224.636 283.415 257.862 274.344C291.089 265.272 328.998 278.211 366.853 303.006C404.709 327.801 442.793 364.064 459.757 409.835C477.003 455.218 472.8 510.155 448.004 551.528Z" fill="white"/>
</g>
<defs>
<clipPath id="clip0">
<rect width="414" height="896" fill="white"/>
</clipPath>
</defs>
</svg>
