<svg width="414" height="896" viewBox="0 0 414 896" fill="none" xmlns="http://www.w3.org/2000/svg">
<g clip-path="url(#clip0)">
<rect width="414" height="896" fill="white"/>
<path d="M252.568 48.8907C290.387 81.201 319.289 127.974 310.372 165.823C301.148 203.365 254.413 232.29 216.594 269.524C178.776 306.758 149.874 352.3 107.75 365.839C65.3197 379.379 9.66782 360.916 -20.7716 323.682C-51.211 286.448 -55.8231 230.751 -60.1276 170.439C-64.4322 110.126 -68.1218 45.8136 -37.9899 13.1956C-7.55043 -19.1147 56.7106 -19.7301 112.362 -10.8063C168.014 -1.88255 214.75 16.2727 252.568 48.8907Z" fill="#D0E2FF"/>
<path opacity="0.8" d="M292.778 503.806C395.182 573.039 491.342 680.943 480.103 777.62C468.239 874.297 348.351 959.747 246.571 1019C144.167 1078.25 58.6219 1112.56 -0.0732567 1086.36C-59.3928 1060.79 -92.4869 974.716 -105.6 914.839C-119.337 855.585 -113.093 822.528 -108.722 793.836C-104.975 764.522 -103.102 739.573 -89.3648 670.963C-76.252 601.73 -51.2754 488.213 15.5371 446.423C82.3497 404.634 190.374 434.572 292.778 503.806Z" fill="#E8DAFF"/>
<path opacity="0.75" d="M340.335 403.425C263.264 376.384 170.73 400.587 114.516 372.588C58.0386 345.159 37.2959 265.299 63.429 203.73C89.7228 142.561 -9.36085 67.8318 53.621 15.5877C116.603 -36.6563 342.34 -67.1571 385.682 -57.6574C428.598 -47.9868 462.487 32.6229 499.921 83.9551C537.515 135.687 579.24 158.37 615.701 203.595C651.736 248.99 682.506 316.928 669.746 384.725C656.561 452.694 600.109 519.953 540.068 514.381C480.612 509.039 417.992 430.695 340.335 403.425Z" fill="#9EF0F0"/>
<path opacity="0.5" d="M134.824 166.351C189.67 168.547 243.137 187.643 309.314 218.988C375.403 251.033 453.195 294.846 481.207 361.631C509.219 428.416 486.837 517.385 439.792 590.129C393.141 662.566 321.826 718.778 245.423 732.748C169.413 746.413 129.313 639.17 80.9713 590.128C32.9366 541.48 -23.8194 552.039 -45.473 494.224C-67.4336 436.015 -95.6832 388.405 -93.9952 340.249C-92.6141 291.7 -61.2955 242.606 -18.181 210.271C24.8469 178.636 80.678 164.241 134.824 166.351Z" fill="#FFD6E8"/>
<path opacity="0.45" d="M259.282 648.212C297.19 679.82 318.601 730.744 310.177 778.156C301.753 825.92 263.845 869.82 255.07 908.452C245.945 947.435 266.302 981.15 257.527 999.062C249.104 1017.32 211.547 1019.78 182.414 1008.19C153.282 996.603 132.573 970.966 98.1757 994.145C63.7781 1017.32 16.0428 1089.67 -29.9375 1111.09C-76.2689 1132.52 -120.845 1103.02 -113.123 1061.58C-105.752 1020.49 -46.0833 967.102 -29.9375 922.851C-13.7918 878.951 -41.5204 844.182 -46.0833 808.008C-50.6463 771.835 -32.3945 733.905 -2.20894 697.731C27.9766 661.558 69.745 626.789 118.182 615.55C166.269 603.961 221.024 616.253 259.282 648.212Z" fill="#BAE6FF"/>
</g>
<defs>
<clipPath id="clip0">
<rect width="414" height="896" fill="white"/>
</clipPath>
</defs>
</svg>
