<svg width="500" height="502" viewBox="0 0 500 502" fill="none" xmlns="http://www.w3.org/2000/svg">
<path opacity="0.7" d="M226.855 99.033C263.874 95.1251 309.213 80.061 351.151 93.8114C392.963 108.021 411.759 151.425 424.421 191.685C437.082 231.946 432.406 290.781 393.553 342.16C354.997 393.302 320.181 391.716 266.991 408.12C214.097 424.288 178.14 403.846 149.991 376.976C122.013 350.33 82.484 362.632 73.2851 327.527C63.9154 292.198 49.2687 264.3 54.995 233.146C60.5505 201.769 86.4788 167.136 118.82 142.144C151.036 117.61 190.302 102.929 226.855 99.033Z" fill="#FBF8FE"/>
<ellipse cx="247.213" cy="244.13" rx="152" ry="120.5" fill="#FEFDFF" fill-opacity="0.5"/>
<ellipse cx="248" cy="242.5" rx="138" ry="109.5" fill="white"/>
</svg>
