<svg width="170" height="85" viewBox="0 0 170 85" fill="none" xmlns="http://www.w3.org/2000/svg">
<g filter="url(#filter0_d)">
<rect x="4" width="162" height="77" rx="20" fill="#F6F6EC"/>
</g>
<path d="M57.2557 32V20.192H60.7657C61.9657 20.192 62.9377 20.414 63.6817 20.858C64.4377 21.302 64.8157 22.04 64.8157 23.072C64.8157 23.66 64.6657 24.194 64.3657 24.674C64.0657 25.142 63.6397 25.466 63.0877 25.646V25.718C63.7957 25.85 64.3717 26.15 64.8157 26.618C65.2717 27.086 65.4997 27.728 65.4997 28.544C65.4997 29.708 65.0797 30.578 64.2397 31.154C63.4117 31.718 62.3377 32 61.0177 32H57.2557ZM58.7497 25.214H60.4957C61.5037 25.214 62.2297 25.04 62.6737 24.692C63.1177 24.344 63.3397 23.87 63.3397 23.27C63.3397 22.586 63.1057 22.1 62.6377 21.812C62.1697 21.524 61.4797 21.38 60.5677 21.38H58.7497V25.214ZM58.7497 30.812H60.8017C61.8217 30.812 62.6137 30.626 63.1777 30.254C63.7417 29.87 64.0237 29.282 64.0237 28.49C64.0237 27.758 63.7417 27.224 63.1777 26.888C62.6257 26.54 61.8337 26.366 60.8017 26.366H58.7497V30.812ZM70.1418 31.028C70.5618 31.028 70.9578 30.926 71.3298 30.722C71.7018 30.518 72.0978 30.23 72.5178 29.858V27.428C71.0538 27.608 70.0338 27.884 69.4578 28.256C68.8818 28.616 68.5938 29.072 68.5938 29.624C68.5938 30.116 68.7438 30.476 69.0438 30.704C69.3438 30.92 69.7098 31.028 70.1418 31.028ZM69.7098 32.216C68.9778 32.216 68.3658 32 67.8738 31.568C67.3938 31.124 67.1538 30.512 67.1538 29.732C67.1538 28.772 67.5798 28.04 68.4318 27.536C69.2958 27.02 70.6578 26.66 72.5178 26.456C72.5178 25.904 72.3978 25.4 72.1578 24.944C71.9178 24.488 71.4378 24.26 70.7178 24.26C70.2138 24.26 69.7398 24.356 69.2958 24.548C68.8518 24.74 68.4558 24.956 68.1078 25.196L67.5318 24.17C67.9398 23.906 68.4378 23.654 69.0258 23.414C69.6258 23.162 70.2738 23.036 70.9698 23.036C72.0378 23.036 72.8118 23.366 73.2918 24.026C73.7718 24.674 74.0118 25.544 74.0118 26.636V32H72.7878L72.6618 30.956H72.6078C72.1878 31.292 71.7378 31.586 71.2578 31.838C70.7778 32.09 70.2618 32.216 69.7098 32.216ZM76.7641 32V19.184H78.2401V22.676L78.1861 24.476C78.6061 24.08 79.0441 23.744 79.5001 23.468C79.9681 23.18 80.5021 23.036 81.1021 23.036C82.8781 23.036 83.7661 24.176 83.7661 26.456V32H82.2901V26.654C82.2901 25.838 82.1581 25.244 81.8941 24.872C81.6301 24.5 81.2101 24.314 80.6341 24.314C80.1901 24.314 79.7881 24.428 79.4281 24.656C79.0801 24.884 78.6841 25.22 78.2401 25.664V32H76.7641ZM89.0031 31.028C89.4231 31.028 89.8191 30.926 90.1911 30.722C90.5631 30.518 90.9591 30.23 91.3791 29.858V27.428C89.9151 27.608 88.8951 27.884 88.3191 28.256C87.7431 28.616 87.4551 29.072 87.4551 29.624C87.4551 30.116 87.6051 30.476 87.9051 30.704C88.2051 30.92 88.5711 31.028 89.0031 31.028ZM88.5711 32.216C87.8391 32.216 87.2271 32 86.7351 31.568C86.2551 31.124 86.0151 30.512 86.0151 29.732C86.0151 28.772 86.4411 28.04 87.2931 27.536C88.1571 27.02 89.5191 26.66 91.3791 26.456C91.3791 25.904 91.2591 25.4 91.0191 24.944C90.7791 24.488 90.2991 24.26 89.5791 24.26C89.0751 24.26 88.6011 24.356 88.1571 24.548C87.7131 24.74 87.3171 24.956 86.9691 25.196L86.3931 24.17C86.8011 23.906 87.2991 23.654 87.8871 23.414C88.4871 23.162 89.1351 23.036 89.8311 23.036C90.8991 23.036 91.6731 23.366 92.1531 24.026C92.6331 24.674 92.8731 25.544 92.8731 26.636V32H91.6491L91.5231 30.956H91.4691C91.0491 31.292 90.5991 31.586 90.1191 31.838C89.6391 32.09 89.1231 32.216 88.5711 32.216ZM97.9114 32.216C97.2874 32.216 96.6874 32.102 96.1114 31.874C95.5474 31.646 95.0614 31.358 94.6534 31.01L95.3914 30.02C95.7634 30.332 96.1534 30.584 96.5614 30.776C96.9694 30.968 97.4374 31.064 97.9654 31.064C98.5414 31.064 98.9734 30.932 99.2614 30.668C99.5494 30.404 99.6934 30.08 99.6934 29.696C99.6934 29.24 99.4774 28.898 99.0454 28.67C98.6254 28.43 98.1754 28.22 97.6954 28.04C97.0714 27.812 96.4774 27.524 95.9134 27.176C95.3614 26.816 95.0854 26.264 95.0854 25.52C95.0854 24.824 95.3494 24.236 95.8774 23.756C96.4054 23.276 97.1434 23.036 98.0914 23.036C98.6434 23.036 99.1474 23.132 99.6034 23.324C100.071 23.516 100.473 23.75 100.809 24.026L100.107 24.962C99.8074 24.734 99.4954 24.548 99.1714 24.404C98.8474 24.26 98.4934 24.188 98.1094 24.188C97.5574 24.188 97.1494 24.314 96.8854 24.566C96.6334 24.818 96.5074 25.112 96.5074 25.448C96.5074 25.856 96.7054 26.162 97.1014 26.366C97.5094 26.57 97.9594 26.768 98.4514 26.96C99.0874 27.2 99.6874 27.494 100.251 27.842C100.827 28.19 101.115 28.778 101.115 29.606C101.115 30.314 100.839 30.926 100.287 31.442C99.7354 31.958 98.9434 32.216 97.9114 32.216ZM105.614 31.028C106.034 31.028 106.43 30.926 106.802 30.722C107.174 30.518 107.57 30.23 107.99 29.858V27.428C106.526 27.608 105.506 27.884 104.93 28.256C104.354 28.616 104.066 29.072 104.066 29.624C104.066 30.116 104.216 30.476 104.516 30.704C104.816 30.92 105.182 31.028 105.614 31.028ZM105.182 32.216C104.45 32.216 103.838 32 103.346 31.568C102.866 31.124 102.626 30.512 102.626 29.732C102.626 28.772 103.052 28.04 103.904 27.536C104.768 27.02 106.13 26.66 107.99 26.456C107.99 25.904 107.87 25.4 107.63 24.944C107.39 24.488 106.91 24.26 106.19 24.26C105.686 24.26 105.212 24.356 104.768 24.548C104.324 24.74 103.928 24.956 103.58 25.196L103.004 24.17C103.412 23.906 103.91 23.654 104.498 23.414C105.098 23.162 105.746 23.036 106.442 23.036C107.51 23.036 108.284 23.366 108.764 24.026C109.244 24.674 109.484 25.544 109.484 26.636V32H108.26L108.134 30.956H108.08C107.66 31.292 107.21 31.586 106.73 31.838C106.25 32.09 105.734 32.216 105.182 32.216ZM49.5565 54V42.192H51.0505V54H49.5565ZM54.141 54V45.252H55.365L55.491 46.512H55.545C55.953 46.104 56.391 45.756 56.859 45.468C57.339 45.18 57.879 45.036 58.479 45.036C60.255 45.036 61.143 46.176 61.143 48.456V54H59.667V48.654C59.667 47.838 59.535 47.244 59.271 46.872C59.007 46.5 58.587 46.314 58.011 46.314C57.567 46.314 57.165 46.428 56.805 46.656C56.457 46.884 56.061 47.22 55.617 47.664V54H54.141ZM67.2968 52.974C68.0648 52.974 68.8088 52.572 69.5288 51.768V47.196C69.1568 46.86 68.7968 46.626 68.4488 46.494C68.1128 46.35 67.7648 46.278 67.4048 46.278C66.7088 46.278 66.1148 46.59 65.6228 47.214C65.1308 47.826 64.8848 48.63 64.8848 49.626C64.8848 50.67 65.0948 51.492 65.5148 52.092C65.9348 52.68 66.5288 52.974 67.2968 52.974ZM66.9728 54.216C65.8688 54.216 64.9868 53.82 64.3268 53.028C63.6788 52.236 63.3548 51.108 63.3548 49.644C63.3548 48.228 63.7388 47.106 64.5068 46.278C65.2748 45.45 66.1568 45.036 67.1528 45.036C67.6568 45.036 68.0948 45.126 68.4668 45.306C68.8388 45.486 69.2168 45.732 69.6008 46.044L69.5288 44.55V41.184H71.0228V54H69.7988L69.6728 52.974H69.6188C69.2708 53.31 68.8688 53.604 68.4128 53.856C67.9688 54.096 67.4888 54.216 66.9728 54.216ZM77.3712 54.216C76.3032 54.216 75.3612 53.82 74.5452 53.028C73.7292 52.224 73.3212 51.096 73.3212 49.644C73.3212 48.18 73.7292 47.046 74.5452 46.242C75.3612 45.438 76.3032 45.036 77.3712 45.036C78.4392 45.036 79.3812 45.438 80.1972 46.242C81.0132 47.046 81.4212 48.18 81.4212 49.644C81.4212 51.096 81.0132 52.224 80.1972 53.028C79.3812 53.82 78.4392 54.216 77.3712 54.216ZM77.3712 52.992C78.1272 52.992 78.7332 52.686 79.1892 52.074C79.6572 51.45 79.8912 50.64 79.8912 49.644C79.8912 48.636 79.6572 47.82 79.1892 47.196C78.7332 46.572 78.1272 46.26 77.3712 46.26C76.6272 46.26 76.0212 46.572 75.5532 47.196C75.0852 47.82 74.8512 48.636 74.8512 49.644C74.8512 50.64 75.0852 51.45 75.5532 52.074C76.0212 52.686 76.6272 52.992 77.3712 52.992ZM83.725 54V45.252H84.949L85.075 46.512H85.129C85.537 46.104 85.975 45.756 86.443 45.468C86.923 45.18 87.463 45.036 88.063 45.036C89.839 45.036 90.727 46.176 90.727 48.456V54H89.251V48.654C89.251 47.838 89.119 47.244 88.855 46.872C88.591 46.5 88.171 46.314 87.595 46.314C87.151 46.314 86.749 46.428 86.389 46.656C86.041 46.884 85.645 47.22 85.201 47.664V54H83.725ZM97.1148 54.216C95.9508 54.216 94.9608 53.814 94.1448 53.01C93.3288 52.194 92.9208 51.072 92.9208 49.644C92.9208 48.684 93.1068 47.862 93.4788 47.178C93.8628 46.494 94.3488 45.966 94.9368 45.594C95.5368 45.222 96.1728 45.036 96.8448 45.036C97.9608 45.036 98.8188 45.408 99.4188 46.152C100.031 46.896 100.337 47.892 100.337 49.14C100.337 49.488 100.319 49.77 100.283 49.986H94.3788C94.4388 50.91 94.7268 51.648 95.2428 52.2C95.7708 52.752 96.4548 53.028 97.2948 53.028C97.7148 53.028 98.0988 52.968 98.4468 52.848C98.8068 52.716 99.1488 52.548 99.4728 52.344L99.9948 53.316C99.6228 53.556 99.1968 53.766 98.7168 53.946C98.2368 54.126 97.7028 54.216 97.1148 54.216ZM94.3608 48.924H99.0408C99.0408 47.112 98.3208 46.206 96.8808 46.206C96.2688 46.206 95.7168 46.446 95.2248 46.926C94.7448 47.394 94.4568 48.06 94.3608 48.924ZM104.784 54.216C104.16 54.216 103.56 54.102 102.984 53.874C102.42 53.646 101.934 53.358 101.526 53.01L102.264 52.02C102.636 52.332 103.026 52.584 103.434 52.776C103.842 52.968 104.31 53.064 104.838 53.064C105.414 53.064 105.846 52.932 106.134 52.668C106.422 52.404 106.566 52.08 106.566 51.696C106.566 51.24 106.35 50.898 105.918 50.67C105.498 50.43 105.048 50.22 104.568 50.04C103.944 49.812 103.35 49.524 102.786 49.176C102.234 48.816 101.958 48.264 101.958 47.52C101.958 46.824 102.222 46.236 102.75 45.756C103.278 45.276 104.016 45.036 104.964 45.036C105.516 45.036 106.02 45.132 106.476 45.324C106.944 45.516 107.346 45.75 107.682 46.026L106.98 46.962C106.68 46.734 106.368 46.548 106.044 46.404C105.72 46.26 105.366 46.188 104.982 46.188C104.43 46.188 104.022 46.314 103.758 46.566C103.506 46.818 103.38 47.112 103.38 47.448C103.38 47.856 103.578 48.162 103.974 48.366C104.382 48.57 104.832 48.768 105.324 48.96C105.96 49.2 106.56 49.494 107.124 49.842C107.7 50.19 107.988 50.778 107.988 51.606C107.988 52.314 107.712 52.926 107.16 53.442C106.608 53.958 105.816 54.216 104.784 54.216ZM110.795 43.452C110.507 43.452 110.261 43.362 110.057 43.182C109.865 43.002 109.769 42.774 109.769 42.498C109.769 42.21 109.865 41.982 110.057 41.814C110.261 41.634 110.507 41.544 110.795 41.544C111.083 41.544 111.323 41.634 111.515 41.814C111.719 41.982 111.821 42.21 111.821 42.498C111.821 42.774 111.719 43.002 111.515 43.182C111.323 43.362 111.083 43.452 110.795 43.452ZM110.039 54V45.252H111.515V54H110.039ZM116.917 53.028C117.337 53.028 117.733 52.926 118.105 52.722C118.477 52.518 118.873 52.23 119.293 51.858V49.428C117.829 49.608 116.809 49.884 116.233 50.256C115.657 50.616 115.369 51.072 115.369 51.624C115.369 52.116 115.519 52.476 115.819 52.704C116.119 52.92 116.485 53.028 116.917 53.028ZM116.485 54.216C115.753 54.216 115.141 54 114.649 53.568C114.169 53.124 113.929 52.512 113.929 51.732C113.929 50.772 114.355 50.04 115.207 49.536C116.071 49.02 117.433 48.66 119.293 48.456C119.293 47.904 119.173 47.4 118.933 46.944C118.693 46.488 118.213 46.26 117.493 46.26C116.989 46.26 116.515 46.356 116.071 46.548C115.627 46.74 115.231 46.956 114.883 47.196L114.307 46.17C114.715 45.906 115.213 45.654 115.801 45.414C116.401 45.162 117.049 45.036 117.745 45.036C118.813 45.036 119.587 45.366 120.067 46.026C120.547 46.674 120.787 47.544 120.787 48.636V54H119.563L119.437 52.956H119.383C118.963 53.292 118.513 53.586 118.033 53.838C117.553 54.09 117.037 54.216 116.485 54.216Z" fill="#7E7C7C"/>
<defs>
<filter id="filter0_d" x="0" y="0" width="170" height="85" filterUnits="userSpaceOnUse" color-interpolation-filters="sRGB">
<feFlood flood-opacity="0" result="BackgroundImageFix"/>
<feColorMatrix in="SourceAlpha" type="matrix" values="0 0 0 0 0 0 0 0 0 0 0 0 0 0 0 0 0 0 127 0" result="hardAlpha"/>
<feOffset dy="4"/>
<feGaussianBlur stdDeviation="2"/>
<feColorMatrix type="matrix" values="0 0 0 0 0 0 0 0 0 0 0 0 0 0 0 0 0 0 0.25 0"/>
<feBlend mode="normal" in2="BackgroundImageFix" result="effect1_dropShadow"/>
<feBlend mode="normal" in="SourceGraphic" in2="effect1_dropShadow" result="shape"/>
</filter>
</defs>
</svg>
