<svg width="170" height="85" viewBox="0 0 170 85" fill="none" xmlns="http://www.w3.org/2000/svg">
<g filter="url(#filter0_d)">
<rect x="4" width="162" height="77" rx="20" fill="#F6F6EC"/>
</g>
<path d="M57.2557 32V20.192H60.7657C61.9657 20.192 62.9377 20.414 63.6817 20.858C64.4377 21.302 64.8157 22.04 64.8157 23.072C64.8157 23.66 64.6657 24.194 64.3657 24.674C64.0657 25.142 63.6397 25.466 63.0877 25.646V25.718C63.7957 25.85 64.3717 26.15 64.8157 26.618C65.2717 27.086 65.4997 27.728 65.4997 28.544C65.4997 29.708 65.0797 30.578 64.2397 31.154C63.4117 31.718 62.3377 32 61.0177 32H57.2557ZM58.7497 25.214H60.4957C61.5037 25.214 62.2297 25.04 62.6737 24.692C63.1177 24.344 63.3397 23.87 63.3397 23.27C63.3397 22.586 63.1057 22.1 62.6377 21.812C62.1697 21.524 61.4797 21.38 60.5677 21.38H58.7497V25.214ZM58.7497 30.812H60.8017C61.8217 30.812 62.6137 30.626 63.1777 30.254C63.7417 29.87 64.0237 29.282 64.0237 28.49C64.0237 27.758 63.7417 27.224 63.1777 26.888C62.6257 26.54 61.8337 26.366 60.8017 26.366H58.7497V30.812ZM70.1418 31.028C70.5618 31.028 70.9578 30.926 71.3298 30.722C71.7018 30.518 72.0978 30.23 72.5178 29.858V27.428C71.0538 27.608 70.0338 27.884 69.4578 28.256C68.8818 28.616 68.5938 29.072 68.5938 29.624C68.5938 30.116 68.7438 30.476 69.0438 30.704C69.3438 30.92 69.7098 31.028 70.1418 31.028ZM69.7098 32.216C68.9778 32.216 68.3658 32 67.8738 31.568C67.3938 31.124 67.1538 30.512 67.1538 29.732C67.1538 28.772 67.5798 28.04 68.4318 27.536C69.2958 27.02 70.6578 26.66 72.5178 26.456C72.5178 25.904 72.3978 25.4 72.1578 24.944C71.9178 24.488 71.4378 24.26 70.7178 24.26C70.2138 24.26 69.7398 24.356 69.2958 24.548C68.8518 24.74 68.4558 24.956 68.1078 25.196L67.5318 24.17C67.9398 23.906 68.4378 23.654 69.0258 23.414C69.6258 23.162 70.2738 23.036 70.9698 23.036C72.0378 23.036 72.8118 23.366 73.2918 24.026C73.7718 24.674 74.0118 25.544 74.0118 26.636V32H72.7878L72.6618 30.956H72.6078C72.1878 31.292 71.7378 31.586 71.2578 31.838C70.7778 32.09 70.2618 32.216 69.7098 32.216ZM76.7641 32V19.184H78.2401V22.676L78.1861 24.476C78.6061 24.08 79.0441 23.744 79.5001 23.468C79.9681 23.18 80.5021 23.036 81.1021 23.036C82.8781 23.036 83.7661 24.176 83.7661 26.456V32H82.2901V26.654C82.2901 25.838 82.1581 25.244 81.8941 24.872C81.6301 24.5 81.2101 24.314 80.6341 24.314C80.1901 24.314 79.7881 24.428 79.4281 24.656C79.0801 24.884 78.6841 25.22 78.2401 25.664V32H76.7641ZM89.0031 31.028C89.4231 31.028 89.8191 30.926 90.1911 30.722C90.5631 30.518 90.9591 30.23 91.3791 29.858V27.428C89.9151 27.608 88.8951 27.884 88.3191 28.256C87.7431 28.616 87.4551 29.072 87.4551 29.624C87.4551 30.116 87.6051 30.476 87.9051 30.704C88.2051 30.92 88.5711 31.028 89.0031 31.028ZM88.5711 32.216C87.8391 32.216 87.2271 32 86.7351 31.568C86.2551 31.124 86.0151 30.512 86.0151 29.732C86.0151 28.772 86.4411 28.04 87.2931 27.536C88.1571 27.02 89.5191 26.66 91.3791 26.456C91.3791 25.904 91.2591 25.4 91.0191 24.944C90.7791 24.488 90.2991 24.26 89.5791 24.26C89.0751 24.26 88.6011 24.356 88.1571 24.548C87.7131 24.74 87.3171 24.956 86.9691 25.196L86.3931 24.17C86.8011 23.906 87.2991 23.654 87.8871 23.414C88.4871 23.162 89.1351 23.036 89.8311 23.036C90.8991 23.036 91.6731 23.366 92.1531 24.026C92.6331 24.674 92.8731 25.544 92.8731 26.636V32H91.6491L91.5231 30.956H91.4691C91.0491 31.292 90.5991 31.586 90.1191 31.838C89.6391 32.09 89.1231 32.216 88.5711 32.216ZM97.9114 32.216C97.2874 32.216 96.6874 32.102 96.1114 31.874C95.5474 31.646 95.0614 31.358 94.6534 31.01L95.3914 30.02C95.7634 30.332 96.1534 30.584 96.5614 30.776C96.9694 30.968 97.4374 31.064 97.9654 31.064C98.5414 31.064 98.9734 30.932 99.2614 30.668C99.5494 30.404 99.6934 30.08 99.6934 29.696C99.6934 29.24 99.4774 28.898 99.0454 28.67C98.6254 28.43 98.1754 28.22 97.6954 28.04C97.0714 27.812 96.4774 27.524 95.9134 27.176C95.3614 26.816 95.0854 26.264 95.0854 25.52C95.0854 24.824 95.3494 24.236 95.8774 23.756C96.4054 23.276 97.1434 23.036 98.0914 23.036C98.6434 23.036 99.1474 23.132 99.6034 23.324C100.071 23.516 100.473 23.75 100.809 24.026L100.107 24.962C99.8074 24.734 99.4954 24.548 99.1714 24.404C98.8474 24.26 98.4934 24.188 98.1094 24.188C97.5574 24.188 97.1494 24.314 96.8854 24.566C96.6334 24.818 96.5074 25.112 96.5074 25.448C96.5074 25.856 96.7054 26.162 97.1014 26.366C97.5094 26.57 97.9594 26.768 98.4514 26.96C99.0874 27.2 99.6874 27.494 100.251 27.842C100.827 28.19 101.115 28.778 101.115 29.606C101.115 30.314 100.839 30.926 100.287 31.442C99.7354 31.958 98.9434 32.216 97.9114 32.216ZM105.614 31.028C106.034 31.028 106.43 30.926 106.802 30.722C107.174 30.518 107.57 30.23 107.99 29.858V27.428C106.526 27.608 105.506 27.884 104.93 28.256C104.354 28.616 104.066 29.072 104.066 29.624C104.066 30.116 104.216 30.476 104.516 30.704C104.816 30.92 105.182 31.028 105.614 31.028ZM105.182 32.216C104.45 32.216 103.838 32 103.346 31.568C102.866 31.124 102.626 30.512 102.626 29.732C102.626 28.772 103.052 28.04 103.904 27.536C104.768 27.02 106.13 26.66 107.99 26.456C107.99 25.904 107.87 25.4 107.63 24.944C107.39 24.488 106.91 24.26 106.19 24.26C105.686 24.26 105.212 24.356 104.768 24.548C104.324 24.74 103.928 24.956 103.58 25.196L103.004 24.17C103.412 23.906 103.91 23.654 104.498 23.414C105.098 23.162 105.746 23.036 106.442 23.036C107.51 23.036 108.284 23.366 108.764 24.026C109.244 24.674 109.484 25.544 109.484 26.636V32H108.26L108.134 30.956H108.08C107.66 31.292 107.21 31.586 106.73 31.838C106.25 32.09 105.734 32.216 105.182 32.216ZM61.1581 54V42.192H62.6521V54H61.1581ZM65.7426 54V45.252H66.9666L67.0926 46.512H67.1466C67.5546 46.104 67.9926 45.756 68.4606 45.468C68.9406 45.18 69.4806 45.036 70.0806 45.036C71.8566 45.036 72.7446 46.176 72.7446 48.456V54H71.2686V48.654C71.2686 47.838 71.1366 47.244 70.8726 46.872C70.6086 46.5 70.1886 46.314 69.6126 46.314C69.1686 46.314 68.7666 46.428 68.4066 46.656C68.0586 46.884 67.6626 47.22 67.2186 47.664V54H65.7426ZM78.5384 50.238C79.0424 50.238 79.4744 50.052 79.8344 49.68C80.2064 49.296 80.3924 48.786 80.3924 48.15C80.3924 47.514 80.2124 47.016 79.8524 46.656C79.4924 46.296 79.0544 46.116 78.5384 46.116C78.0224 46.116 77.5844 46.296 77.2244 46.656C76.8644 47.016 76.6844 47.514 76.6844 48.15C76.6844 48.786 76.8644 49.296 77.2244 49.68C77.5964 50.052 78.0344 50.238 78.5384 50.238ZM78.5384 58.032C77.4704 58.032 76.6004 57.828 75.9284 57.42C75.2564 57.012 74.9204 56.43 74.9204 55.674C74.9204 54.93 75.3464 54.27 76.1984 53.694V53.622C75.9824 53.49 75.7964 53.304 75.6404 53.064C75.4964 52.824 75.4244 52.536 75.4244 52.2C75.4244 51.828 75.5264 51.504 75.7304 51.228C75.9344 50.952 76.1504 50.736 76.3784 50.58V50.508C76.0904 50.268 75.8264 49.944 75.5864 49.536C75.3584 49.128 75.2444 48.666 75.2444 48.15C75.2444 47.202 75.5684 46.446 76.2164 45.882C76.8764 45.318 77.6504 45.036 78.5384 45.036C78.9944 45.036 79.4084 45.108 79.7804 45.252H82.8224V46.386H81.0224C81.2264 46.59 81.3944 46.848 81.5264 47.16C81.6704 47.472 81.7424 47.814 81.7424 48.186C81.7424 49.122 81.4304 49.866 80.8064 50.418C80.1824 50.958 79.4264 51.228 78.5384 51.228C78.0704 51.228 77.6324 51.126 77.2244 50.922C77.0684 51.054 76.9364 51.204 76.8284 51.372C76.7204 51.528 76.6664 51.726 76.6664 51.966C76.6664 52.242 76.7744 52.47 76.9904 52.65C77.2064 52.83 77.6144 52.92 78.2144 52.92H79.9064C81.9464 52.92 82.9664 53.616 82.9664 55.008C82.9664 55.824 82.5644 56.532 81.7604 57.132C80.9684 57.732 79.8944 58.032 78.5384 58.032ZM78.7544 57.006C79.5944 57.006 80.2664 56.82 80.7704 56.448C81.2744 56.088 81.5264 55.68 81.5264 55.224C81.5264 54.816 81.3704 54.534 81.0584 54.378C80.7584 54.222 80.3264 54.144 79.7624 54.144H78.2504C78.0824 54.144 77.8964 54.132 77.6924 54.108C77.5004 54.084 77.3084 54.048 77.1164 54C76.5164 54.432 76.2164 54.924 76.2164 55.476C76.2164 55.944 76.4384 56.316 76.8824 56.592C77.3384 56.868 77.9624 57.006 78.7544 57.006ZM87.6087 50.238C88.1127 50.238 88.5447 50.052 88.9047 49.68C89.2767 49.296 89.4627 48.786 89.4627 48.15C89.4627 47.514 89.2827 47.016 88.9227 46.656C88.5627 46.296 88.1247 46.116 87.6087 46.116C87.0927 46.116 86.6547 46.296 86.2947 46.656C85.9347 47.016 85.7547 47.514 85.7547 48.15C85.7547 48.786 85.9347 49.296 86.2947 49.68C86.6667 50.052 87.1047 50.238 87.6087 50.238ZM87.6087 58.032C86.5407 58.032 85.6707 57.828 84.9987 57.42C84.3267 57.012 83.9907 56.43 83.9907 55.674C83.9907 54.93 84.4167 54.27 85.2687 53.694V53.622C85.0527 53.49 84.8667 53.304 84.7107 53.064C84.5667 52.824 84.4947 52.536 84.4947 52.2C84.4947 51.828 84.5967 51.504 84.8007 51.228C85.0047 50.952 85.2207 50.736 85.4487 50.58V50.508C85.1607 50.268 84.8967 49.944 84.6567 49.536C84.4287 49.128 84.3147 48.666 84.3147 48.15C84.3147 47.202 84.6387 46.446 85.2867 45.882C85.9467 45.318 86.7207 45.036 87.6087 45.036C88.0647 45.036 88.4787 45.108 88.8507 45.252H91.8927V46.386H90.0927C90.2967 46.59 90.4647 46.848 90.5967 47.16C90.7407 47.472 90.8127 47.814 90.8127 48.186C90.8127 49.122 90.5007 49.866 89.8767 50.418C89.2527 50.958 88.4967 51.228 87.6087 51.228C87.1407 51.228 86.7027 51.126 86.2947 50.922C86.1387 51.054 86.0067 51.204 85.8987 51.372C85.7907 51.528 85.7367 51.726 85.7367 51.966C85.7367 52.242 85.8447 52.47 86.0607 52.65C86.2767 52.83 86.6847 52.92 87.2847 52.92H88.9767C91.0167 52.92 92.0367 53.616 92.0367 55.008C92.0367 55.824 91.6347 56.532 90.8307 57.132C90.0387 57.732 88.9647 58.032 87.6087 58.032ZM87.8247 57.006C88.6647 57.006 89.3367 56.82 89.8407 56.448C90.3447 56.088 90.5967 55.68 90.5967 55.224C90.5967 54.816 90.4407 54.534 90.1287 54.378C89.8287 54.222 89.3967 54.144 88.8327 54.144H87.3207C87.1527 54.144 86.9667 54.132 86.7627 54.108C86.5707 54.084 86.3787 54.048 86.1867 54C85.5867 54.432 85.2867 54.924 85.2867 55.476C85.2867 55.944 85.5087 56.316 85.9527 56.592C86.4087 56.868 87.0327 57.006 87.8247 57.006ZM93.727 54V45.252H94.951L95.077 46.836H95.131C95.431 46.284 95.797 45.846 96.229 45.522C96.661 45.198 97.123 45.036 97.615 45.036C97.963 45.036 98.275 45.096 98.551 45.216L98.263 46.512C98.119 46.464 97.987 46.428 97.867 46.404C97.747 46.38 97.597 46.368 97.417 46.368C97.045 46.368 96.655 46.518 96.247 46.818C95.851 47.118 95.503 47.64 95.203 48.384V54H93.727ZM100.723 43.452C100.435 43.452 100.189 43.362 99.9852 43.182C99.7932 43.002 99.6972 42.774 99.6972 42.498C99.6972 42.21 99.7932 41.982 99.9852 41.814C100.189 41.634 100.435 41.544 100.723 41.544C101.011 41.544 101.251 41.634 101.443 41.814C101.647 41.982 101.749 42.21 101.749 42.498C101.749 42.774 101.647 43.002 101.443 43.182C101.251 43.362 101.011 43.452 100.723 43.452ZM99.9672 54V45.252H101.443V54H99.9672ZM106.683 54.216C106.059 54.216 105.459 54.102 104.883 53.874C104.319 53.646 103.833 53.358 103.425 53.01L104.163 52.02C104.535 52.332 104.925 52.584 105.333 52.776C105.741 52.968 106.209 53.064 106.737 53.064C107.313 53.064 107.745 52.932 108.033 52.668C108.321 52.404 108.465 52.08 108.465 51.696C108.465 51.24 108.249 50.898 107.817 50.67C107.397 50.43 106.947 50.22 106.467 50.04C105.843 49.812 105.249 49.524 104.685 49.176C104.133 48.816 103.857 48.264 103.857 47.52C103.857 46.824 104.121 46.236 104.649 45.756C105.177 45.276 105.915 45.036 106.863 45.036C107.415 45.036 107.919 45.132 108.375 45.324C108.843 45.516 109.245 45.75 109.581 46.026L108.879 46.962C108.579 46.734 108.267 46.548 107.943 46.404C107.619 46.26 107.265 46.188 106.881 46.188C106.329 46.188 105.921 46.314 105.657 46.566C105.405 46.818 105.279 47.112 105.279 47.448C105.279 47.856 105.477 48.162 105.873 48.366C106.281 48.57 106.731 48.768 107.223 48.96C107.859 49.2 108.459 49.494 109.023 49.842C109.599 50.19 109.887 50.778 109.887 51.606C109.887 52.314 109.611 52.926 109.059 53.442C108.507 53.958 107.715 54.216 106.683 54.216Z" fill="#7E7C7C"/>
<defs>
<filter id="filter0_d" x="0" y="0" width="170" height="85" filterUnits="userSpaceOnUse" color-interpolation-filters="sRGB">
<feFlood flood-opacity="0" result="BackgroundImageFix"/>
<feColorMatrix in="SourceAlpha" type="matrix" values="0 0 0 0 0 0 0 0 0 0 0 0 0 0 0 0 0 0 127 0" result="hardAlpha"/>
<feOffset dy="4"/>
<feGaussianBlur stdDeviation="2"/>
<feColorMatrix type="matrix" values="0 0 0 0 0 0 0 0 0 0 0 0 0 0 0 0 0 0 0.25 0"/>
<feBlend mode="normal" in2="BackgroundImageFix" result="effect1_dropShadow"/>
<feBlend mode="normal" in="SourceGraphic" in2="effect1_dropShadow" result="shape"/>
</filter>
</defs>
</svg>
