<svg width="407" height="408" viewBox="0 0 407 408" fill="none" xmlns="http://www.w3.org/2000/svg">
<path opacity="0.5" d="M166.518 76.8197C234.307 44.6255 253.458 59.715 287.976 75.2587C322.44 91.1686 319.991 187.699 341.733 195.553C355.701 230.028 329.356 281.254 306.712 298.635C262.596 332.497 259.523 346.436 219.068 354.635C178.825 362.67 128.213 326.231 103.311 301.249C59.6004 293.306 72.2803 256.703 72.7145 223.135C61.8337 193.058 63.1109 169.854 64.5791 144.733C64.5791 144.733 76.4997 121.576 99.6219 104.203C122.69 87.1973 166.518 76.8197 166.518 76.8197Z" fill="#F0F6FB"/>
<ellipse cx="207.5" cy="204" rx="104.5" ry="105" fill="#F5F9FD"/>
<circle cx="205.5" cy="198.5" r="76.5" fill="white"/>
<rect x="185.5" y="168.5" width="11" height="64" rx="5.5" fill="white" stroke="#8FB3D5" stroke-width="5"/>
<rect x="214.5" y="168.5" width="11" height="64" rx="5.5" fill="white" stroke="#8FB3D5" stroke-width="5"/>
</svg>
