<svg width="47" height="13" viewBox="0 0 47 13" fill="none" xmlns="http://www.w3.org/2000/svg">
<path d="M0.0133906 8.058V6.924H4.15339V8.058H0.0133906ZM9.18875 12V11.118C10.9168 9.402 12.2488 7.98 13.1848 6.852C14.1208 5.712 14.5888 4.68 14.5888 3.756C14.5888 3.096 14.4088 2.556 14.0488 2.136C13.6888 1.716 13.1428 1.506 12.4108 1.506C11.9308 1.506 11.4868 1.644 11.0788 1.92C10.6708 2.184 10.2988 2.508 9.96275 2.892L9.11675 2.046C9.59675 1.53 10.1068 1.11 10.6468 0.786C11.1988 0.461999 11.8468 0.299999 12.5908 0.299999C13.6588 0.299999 14.4988 0.611999 15.1108 1.236C15.7228 1.848 16.0288 2.664 16.0288 3.684C16.0288 4.764 15.5848 5.868 14.6968 6.996C13.8208 8.124 12.7048 9.402 11.3488 10.83C11.6608 10.806 11.9848 10.782 12.3208 10.758C12.6568 10.734 12.9748 10.722 13.2748 10.722H16.6048V12H9.18875ZM23.2695 5.718C22.9695 5.718 22.7115 5.616 22.4955 5.412C22.2915 5.196 22.1895 4.926 22.1895 4.602C22.1895 4.266 22.2915 3.99 22.4955 3.774C22.7115 3.558 22.9695 3.45 23.2695 3.45C23.5575 3.45 23.8035 3.558 24.0075 3.774C24.2235 3.99 24.3315 4.266 24.3315 4.602C24.3315 4.926 24.2235 5.196 24.0075 5.412C23.8035 5.616 23.5575 5.718 23.2695 5.718ZM23.2695 12.216C22.9695 12.216 22.7115 12.114 22.4955 11.91C22.2915 11.694 22.1895 11.424 22.1895 11.1C22.1895 10.764 22.2915 10.488 22.4955 10.272C22.7115 10.056 22.9695 9.948 23.2695 9.948C23.5575 9.948 23.8035 10.056 24.0075 10.272C24.2235 10.488 24.3315 10.764 24.3315 11.1C24.3315 11.424 24.2235 11.694 24.0075 11.91C23.8035 12.114 23.5575 12.216 23.2695 12.216ZM33.3535 12.216C32.4415 12.216 31.6795 12.054 31.0675 11.73C30.4555 11.394 29.9575 11.016 29.5735 10.596L30.3295 9.624C30.6655 9.984 31.0675 10.302 31.5355 10.578C32.0155 10.854 32.5915 10.992 33.2635 10.992C33.9595 10.992 34.5295 10.8 34.9735 10.416C35.4175 10.032 35.6395 9.522 35.6395 8.886C35.6395 8.202 35.3695 7.65 34.8295 7.23C34.2895 6.81 33.3355 6.6 31.9675 6.6V5.466C33.1915 5.466 34.0375 5.262 34.5055 4.854C34.9855 4.434 35.2255 3.924 35.2255 3.324C35.2255 2.772 35.0455 2.334 34.6855 2.01C34.3375 1.674 33.8575 1.506 33.2455 1.506C32.7655 1.506 32.3215 1.62 31.9135 1.848C31.5055 2.064 31.1335 2.34 30.7975 2.676L30.0055 1.74C30.4495 1.332 30.9415 0.989999 31.4815 0.713999C32.0215 0.437999 32.6275 0.299999 33.2995 0.299999C34.2955 0.299999 35.1175 0.557999 35.7655 1.074C36.4135 1.578 36.7375 2.292 36.7375 3.216C36.7375 3.912 36.5455 4.482 36.1615 4.926C35.7775 5.37 35.2735 5.712 34.6495 5.952V6.024C35.3455 6.192 35.9335 6.522 36.4135 7.014C36.8935 7.506 37.1335 8.148 37.1335 8.94C37.1335 9.96 36.7675 10.764 36.0355 11.352C35.3035 11.928 34.4095 12.216 33.3535 12.216ZM46.2787 8.526C46.2787 9.618 45.9427 10.506 45.2707 11.19C44.5987 11.874 43.8007 12.216 42.8767 12.216C41.7487 12.216 40.8067 11.76 40.0507 10.848C39.2947 9.924 38.9167 8.538 38.9167 6.69C38.9167 5.154 39.1207 3.918 39.5287 2.982C39.9487 2.046 40.4887 1.368 41.1487 0.948C41.8207 0.515999 42.5347 0.299999 43.2907 0.299999C43.9147 0.299999 44.4487 0.419999 44.8927 0.659999C45.3487 0.888 45.7387 1.176 46.0627 1.524L45.2347 2.442C44.7307 1.842 44.1007 1.542 43.3447 1.542C42.5407 1.542 41.8447 1.902 41.2567 2.622C40.6687 3.33 40.3567 4.596 40.3207 6.42C40.6807 5.988 41.1007 5.64 41.5807 5.376C42.0607 5.112 42.5347 4.98 43.0027 4.98C43.9987 4.98 44.7907 5.28 45.3787 5.88C45.9787 6.468 46.2787 7.35 46.2787 8.526ZM42.8767 11.046C43.4407 11.046 43.9147 10.818 44.2987 10.362C44.6827 9.894 44.8747 9.282 44.8747 8.526C44.8747 7.782 44.6947 7.194 44.3347 6.762C43.9867 6.318 43.4587 6.096 42.7507 6.096C42.3787 6.096 41.9767 6.216 41.5447 6.456C41.1127 6.696 40.7167 7.08 40.3567 7.608C40.5487 9.9 41.3887 11.046 42.8767 11.046Z" fill="#344A5E"/>
</svg>
