<svg width="38" height="13" viewBox="0 0 38 13" fill="none" xmlns="http://www.w3.org/2000/svg">
<path d="M4.482 12.216C3.33 12.216 2.424 11.7 1.764 10.668C1.116 9.636 0.792 8.154 0.792 6.222C0.792 4.29 1.116 2.82 1.764 1.812C2.424 0.803999 3.33 0.299999 4.482 0.299999C5.622 0.299999 6.516 0.803999 7.164 1.812C7.824 2.82 8.154 4.29 8.154 6.222C8.154 8.154 7.824 9.636 7.164 10.668C6.516 11.7 5.622 12.216 4.482 12.216ZM4.482 11.028C5.142 11.028 5.676 10.65 6.084 9.894C6.504 9.126 6.714 7.902 6.714 6.222C6.714 4.542 6.504 3.336 6.084 2.604C5.676 1.86 5.142 1.488 4.482 1.488C3.81 1.488 3.264 1.86 2.844 2.604C2.436 3.336 2.232 4.542 2.232 6.222C2.232 7.902 2.436 9.126 2.844 9.894C3.264 10.65 3.81 11.028 4.482 11.028ZM14.8008 5.718C14.5008 5.718 14.2428 5.616 14.0268 5.412C13.8228 5.196 13.7208 4.926 13.7208 4.602C13.7208 4.266 13.8228 3.99 14.0268 3.774C14.2428 3.558 14.5008 3.45 14.8008 3.45C15.0888 3.45 15.3348 3.558 15.5388 3.774C15.7548 3.99 15.8628 4.266 15.8628 4.602C15.8628 4.926 15.7548 5.196 15.5388 5.412C15.3348 5.616 15.0888 5.718 14.8008 5.718ZM14.8008 12.216C14.5008 12.216 14.2428 12.114 14.0268 11.91C13.8228 11.694 13.7208 11.424 13.7208 11.1C13.7208 10.764 13.8228 10.488 14.0268 10.272C14.2428 10.056 14.5008 9.948 14.8008 9.948C15.0888 9.948 15.3348 10.056 15.5388 10.272C15.7548 10.488 15.8628 10.764 15.8628 11.1C15.8628 11.424 15.7548 11.694 15.5388 11.91C15.3348 12.114 15.0888 12.216 14.8008 12.216ZM25.1187 12.216C23.9667 12.216 23.0607 11.7 22.4007 10.668C21.7527 9.636 21.4287 8.154 21.4287 6.222C21.4287 4.29 21.7527 2.82 22.4007 1.812C23.0607 0.803999 23.9667 0.299999 25.1187 0.299999C26.2587 0.299999 27.1527 0.803999 27.8007 1.812C28.4607 2.82 28.7907 4.29 28.7907 6.222C28.7907 8.154 28.4607 9.636 27.8007 10.668C27.1527 11.7 26.2587 12.216 25.1187 12.216ZM25.1187 11.028C25.7787 11.028 26.3127 10.65 26.7207 9.894C27.1407 9.126 27.3507 7.902 27.3507 6.222C27.3507 4.542 27.1407 3.336 26.7207 2.604C26.3127 1.86 25.7787 1.488 25.1187 1.488C24.4467 1.488 23.9007 1.86 23.4807 2.604C23.0727 3.336 22.8687 4.542 22.8687 6.222C22.8687 7.902 23.0727 9.126 23.4807 9.894C23.9007 10.65 24.4467 11.028 25.1187 11.028ZM34.066 12.216C32.914 12.216 32.008 11.7 31.348 10.668C30.7 9.636 30.376 8.154 30.376 6.222C30.376 4.29 30.7 2.82 31.348 1.812C32.008 0.803999 32.914 0.299999 34.066 0.299999C35.206 0.299999 36.1 0.803999 36.748 1.812C37.408 2.82 37.738 4.29 37.738 6.222C37.738 8.154 37.408 9.636 36.748 10.668C36.1 11.7 35.206 12.216 34.066 12.216ZM34.066 11.028C34.726 11.028 35.26 10.65 35.668 9.894C36.088 9.126 36.298 7.902 36.298 6.222C36.298 4.542 36.088 3.336 35.668 2.604C35.26 1.86 34.726 1.488 34.066 1.488C33.394 1.488 32.848 1.86 32.428 2.604C32.02 3.336 31.816 4.542 31.816 6.222C31.816 7.902 32.02 9.126 32.428 9.894C32.848 10.65 33.394 11.028 34.066 11.028Z" fill="#344A5E"/>
</svg>
